<svg id="visual" viewBox="0 0 960 540" width="960" height="540" xmlns="http://www.w3.org/2000/svg" xmlns:xlink="http://www.w3.org/1999/xlink" version="1.1"><rect x="0" y="0" width="960" height="540" fill="#001220"></rect><path d="M0 177L22.8 182.3C45.7 187.7 91.3 198.3 137 206C182.7 213.7 228.3 218.3 274 212.5C319.7 206.7 365.3 190.3 411.2 176.2C457 162 503 150 548.8 157.8C594.7 165.7 640.3 193.3 686 203.7C731.7 214 777.3 207 823 194C868.7 181 914.3 162 937.2 152.5L960 143L960 0L937.2 0C914.3 0 868.7 0 823 0C777.3 0 731.7 0 686 0C640.3 0 594.7 0 548.8 0C503 0 457 0 411.2 0C365.3 0 319.7 0 274 0C228.3 0 182.7 0 137 0C91.3 0 45.7 0 22.8 0L0 0Z" fill="#fa7268"></path><path d="M0 135L22.8 141.5C45.7 148 91.3 161 137 166.5C182.7 172 228.3 170 274 166.8C319.7 163.7 365.3 159.3 411.2 161.3C457 163.3 503 171.7 548.8 175.5C594.7 179.3 640.3 178.7 686 176.7C731.7 174.7 777.3 171.3 823 162.7C868.7 154 914.3 140 937.2 133L960 126L960 0L937.2 0C914.3 0 868.7 0 823 0C777.3 0 731.7 0 686 0C640.3 0 594.7 0 548.8 0C503 0 457 0 411.2 0C365.3 0 319.7 0 274 0C228.3 0 182.7 0 137 0C91.3 0 45.7 0 22.8 0L0 0Z" fill="#ef5f67"></path><path d="M0 96L22.8 98.5C45.7 101 91.3 106 137 103.2C182.7 100.3 228.3 89.7 274 94.7C319.7 99.7 365.3 120.3 411.2 128.3C457 136.3 503 131.7 548.8 127.8C594.7 124 640.3 121 686 115.2C731.7 109.3 777.3 100.7 823 101.7C868.7 102.7 914.3 113.3 937.2 118.7L960 124L960 0L937.2 0C914.3 0 868.7 0 823 0C777.3 0 731.7 0 686 0C640.3 0 594.7 0 548.8 0C503 0 457 0 411.2 0C365.3 0 319.7 0 274 0C228.3 0 182.7 0 137 0C91.3 0 45.7 0 22.8 0L0 0Z" fill="#e34c67"></path><path d="M0 101L22.8 98.2C45.7 95.3 91.3 89.7 137 85.8C182.7 82 228.3 80 274 78.7C319.7 77.3 365.3 76.7 411.2 76.8C457 77 503 78 548.8 73.7C594.7 69.3 640.3 59.7 686 58.2C731.7 56.7 777.3 63.3 823 67.5C868.7 71.7 914.3 73.3 937.2 74.2L960 75L960 0L937.2 0C914.3 0 868.7 0 823 0C777.3 0 731.7 0 686 0C640.3 0 594.7 0 548.8 0C503 0 457 0 411.2 0C365.3 0 319.7 0 274 0C228.3 0 182.7 0 137 0C91.3 0 45.7 0 22.8 0L0 0Z" fill="#d53867"></path><path d="M0 33L22.8 36.8C45.7 40.7 91.3 48.3 137 53.3C182.7 58.3 228.3 60.7 274 60C319.7 59.3 365.3 55.7 411.2 49.2C457 42.7 503 33.3 548.8 31.8C594.7 30.3 640.3 36.7 686 40.5C731.7 44.3 777.3 45.7 823 47.5C868.7 49.3 914.3 51.7 937.2 52.8L960 54L960 0L937.2 0C914.3 0 868.7 0 823 0C777.3 0 731.7 0 686 0C640.3 0 594.7 0 548.8 0C503 0 457 0 411.2 0C365.3 0 319.7 0 274 0C228.3 0 182.7 0 137 0C91.3 0 45.7 0 22.8 0L0 0Z" fill="#c62368"></path></svg>